<svg xmlns="http://www.w3.org/2000/svg" xmlns:xlink="http://www.w3.org/1999/xlink" viewBox="0 0 102 34"><defs><style>.cls-1{fill:none;}.cls-2{clip-path:url(#clip-path);}.cls-3{fill:url(#linear-gradient);}</style><clipPath id="clip-path" transform="translate(0.49 5.6)"><path class="cls-1" d="M15.79,12.87a6.27,6.27,0,0,0-3.08-2.11,5.36,5.36,0,0,0,2.42-1.94A5.26,5.26,0,0,0,16,5.77a5,5,0,0,0-2-4.29A9.42,9.42,0,0,0,8.29,0H0V22.7H8.58a10.12,10.12,0,0,0,6.1-1.61,5.46,5.46,0,0,0,2.18-4.67A5.8,5.8,0,0,0,15.79,12.87ZM4.63,4.09H8.11a3.77,3.77,0,0,1,2.35.64,2.22,2.22,0,0,1,.83,1.85,2.22,2.22,0,0,1-.83,1.86,3.77,3.77,0,0,1-2.35.64H4.63Zm6.55,13.76a4.39,4.39,0,0,1-2.77.77H4.63V12.71H8.41a4.45,4.45,0,0,1,2.77.75,2.58,2.58,0,0,1,1,2.19A2.61,2.61,0,0,1,11.18,17.85Zm22.65-2.73a7.91,7.91,0,0,0-1-4.06A7.43,7.43,0,0,0,30,8.28a8,8,0,0,0-4.06-1,8.15,8.15,0,0,0-4.11,1A7.54,7.54,0,0,0,19,11.07a7.73,7.73,0,0,0-1,4A7.78,7.78,0,0,0,19,19.17,7.69,7.69,0,0,0,22,22a9.35,9.35,0,0,0,4.44,1,11.52,11.52,0,0,0,3.29-.51,10.47,10.47,0,0,0,3.47-1.89l-2.63-3.15a7.65,7.65,0,0,1-1.88,1.31,6,6,0,0,1-2.61.51,4.33,4.33,0,0,1-2.57-.79,4.08,4.08,0,0,1-1.51-2H33.83ZM21.93,14a4,4,0,0,1,1.34-2.13,3.74,3.74,0,0,1,2.42-.83,3.57,3.57,0,0,1,2.36.82A3.88,3.88,0,0,1,29.35,14Zm23.33,4.86v3.57a7.62,7.62,0,0,1-2.83.56,5.6,5.6,0,0,1-4.14-1.44,5.61,5.61,0,0,1-1.45-4.14V11.35H34.35V7.57h2.49V3.78H41.2V7.57h3.68v3.78H41.2v5.57a2.14,2.14,0,0,0,.69,1.69,2.52,2.52,0,0,0,1.75.61A4.27,4.27,0,0,0,45.26,18.87Z"/></clipPath><linearGradient id="linear-gradient" x1="0.28" y1="17" x2="47.28" y2="17" gradientUnits="userSpaceOnUse"><stop offset="0" stop-color="#ff4d15"/><stop offset="1" stop-color="#fa7d00"/></linearGradient></defs><g id="Layer_2" data-name="Layer 2"><g id="Layer_1-2" data-name="Layer 1"><g id="Gradient"><g class="cls-2"><rect class="cls-3" width="47" height="34"/></g><path d="M46.59,0h13V2.42H49.24V10H59v2.42H49.24V22.7H46.59Z" transform="translate(0.49 5.6)"/><path d="M60.64,22.7V7.57h2.25l.16,2.37A5.93,5.93,0,0,1,65,8a5.36,5.36,0,0,1,2.86-.74,7.94,7.94,0,0,1,1.42.14l-.36,2.32a6,6,0,0,0-1.39-.19,3.81,3.81,0,0,0-3.24,1.54,6.14,6.14,0,0,0-1.15,3.81V22.7Z" transform="translate(0.49 5.6)"/><path d="M84.79,15.12v1H72a5.45,5.45,0,0,0,1.94,3.31,5.78,5.78,0,0,0,3.78,1.29,8,8,0,0,0,2.59-.47,6.91,6.91,0,0,0,2.48-1.54l1.47,1.88a9.7,9.7,0,0,1-3.29,1.89,10.74,10.74,0,0,1-3.17.51,9.08,9.08,0,0,1-4.36-1,7.59,7.59,0,0,1-3-2.82,7.82,7.82,0,0,1-1.08-4.1,7.82,7.82,0,0,1,1-4,7.35,7.35,0,0,1,2.78-2.78,7.89,7.89,0,0,1,4-1,7.64,7.64,0,0,1,4,1,7.24,7.24,0,0,1,2.71,2.78A8.3,8.3,0,0,1,84.79,15.12ZM71.93,14H82.19a5.44,5.44,0,0,0-1.71-3.23,4.84,4.84,0,0,0-3.36-1.25,5,5,0,0,0-3.44,1.27A5.39,5.39,0,0,0,71.93,14Z" transform="translate(0.49 5.6)"/><path d="M101.51,15.12v1H88.68a5.45,5.45,0,0,0,1.94,3.31,5.78,5.78,0,0,0,3.78,1.29A8,8,0,0,0,97,20.26a6.91,6.91,0,0,0,2.48-1.54l1.47,1.88a9.7,9.7,0,0,1-3.29,1.89,10.69,10.69,0,0,1-3.17.51,9.08,9.08,0,0,1-4.36-1,7.59,7.59,0,0,1-3-2.82,7.82,7.82,0,0,1-1.08-4.1,7.82,7.82,0,0,1,1-4,7.3,7.3,0,0,1,2.79-2.78,7.87,7.87,0,0,1,4-1,7.63,7.63,0,0,1,4,1,7.24,7.24,0,0,1,2.71,2.78A8.19,8.19,0,0,1,101.51,15.12ZM88.65,14H98.91a5.44,5.44,0,0,0-1.71-3.23,4.84,4.84,0,0,0-3.36-1.25,5,5,0,0,0-3.43,1.27A5.35,5.35,0,0,0,88.65,14Z" transform="translate(0.49 5.6)"/></g></g></g></svg>