<svg id="Capa_1" enable-background="new 0 0 512 512" height="512" viewBox="0 0 512 512" width="512" xmlns="http://www.w3.org/2000/svg"><g><path d="m510.946 103.692c-3.211-31.339-13.336-55.726-30.095-72.483-16.758-16.758-41.146-26.886-72.49-30.102-129.861-5.607-237.861 66.393-291.316 118.107-88.545 89.286-121.212 207.953-115.753 289.034 3.515 30.958 13.782 55.141 30.518 71.876 16.734 16.734 40.92 27.006 71.885 30.528 7.635.869 15.634 1.3 23.933 1.3 84.873 0 204.873-58.119 265.169-116.987 78.783-79.377 128.28-197.871 118.149-291.273zm-51.306-51.272c19.247 19.247 26.306 57.921 20.118 104.966l-125.107-125.106c11.079-1.455 21.693-2.176 31.701-2.176 32.493 0 58.57 7.598 73.288 22.316zm-406.62 406.493c-11.65-11.649-19.23-30.34-21.922-54.049-1.769-15.579-1.404-33.096 1.004-51.716l126.693 126.692c-47.166 6.019-86.205-1.358-105.775-20.927zm318.563-85.159c-46.801 46.801-111.205 82.864-177.147 99.306l-155.523-155.524c16.458-65.913 52.535-130.304 99.342-177.111 47.479-47.479 113.336-84.351 180.834-101.285l153.806 153.806c-16.948 67.476-53.83 133.324-101.312 180.808z"/><path d="m329.151 161.645-31.809 31.809-10.602-10.604c-5.857-5.857-15.354-5.857-21.212 0s-5.857 15.354 0 21.212l10.603 10.603-21.212 21.213-10.603-10.604c-5.856-5.857-15.354-5.857-21.211 0s-5.857 15.354 0 21.212l10.603 10.603-21.212 21.213-10.603-10.604c-5.856-5.857-15.354-5.857-21.211 0-5.858 5.857-5.858 15.354 0 21.212l10.603 10.603-31.809 31.809c-5.857 5.858-5.857 15.354 0 21.212 2.929 2.929 6.768 4.394 10.605 4.394s7.677-1.464 10.605-4.394l31.809-31.809 10.604 10.604c2.929 2.929 6.767 4.394 10.605 4.394s7.677-1.464 10.605-4.394c5.858-5.858 5.858-15.354 0-21.212l-10.603-10.604 21.212-21.212 10.604 10.604c2.929 2.929 6.767 4.394 10.604 4.394s7.678-1.464 10.605-4.394c5.857-5.858 5.857-15.354 0-21.212l-10.604-10.604 21.213-21.212 10.604 10.604c2.929 2.929 6.768 4.394 10.604 4.394 3.838 0 7.678-1.464 10.605-4.394 5.857-5.858 5.857-15.354 0-21.212l-10.604-10.604 31.809-31.809c5.858-5.857 5.858-15.354 0-21.211-5.853-5.857-15.35-5.857-21.207 0z"/></g></svg>